<svg width="444" height="175" viewBox="0 0 444 175" fill="none" xmlns="http://www.w3.org/2000/svg">
<rect y="36" width="289.203" height="99" fill="#1A0325"/>
<path d="M444 87.5L287.58 163.277V11.7228L444 87.5Z" fill="#1A0325"/>
<path d="M76.2519 104H59.7115V101.886L64.5617 101.14C64.9348 101.084 65.2112 100.953 65.3908 100.746C65.5843 100.539 65.681 100.255 65.681 99.896V73.9455H63.2352C62.3232 73.9455 61.4872 73.9938 60.7272 74.0905C59.9672 74.1735 59.3937 74.284 59.0068 74.4222C58.689 74.5327 58.4403 74.6847 58.2606 74.8782C58.081 75.0578 57.9497 75.3135 57.8668 75.6451L56.5195 81.5109H54.0323C53.8941 79.7422 53.8457 78.0633 53.8872 76.4742C53.9425 74.8851 54.0668 73.2684 54.2603 71.624H81.7861C81.9657 73.2684 82.0625 74.892 82.0763 76.4949C82.0901 78.0978 82.0279 79.7698 81.8897 81.5109H79.4025L78.0759 75.6451C78.0068 75.3135 77.8825 75.0578 77.7028 74.8782C77.5232 74.6847 77.2814 74.5327 76.9774 74.4222C76.5628 74.2702 75.9963 74.1527 75.2777 74.0698C74.573 73.9869 73.7439 73.9455 72.7905 73.9455H70.2825V99.896C70.2825 100.255 70.3792 100.539 70.5726 100.746C70.7661 100.953 71.0425 101.084 71.4017 101.14L76.2519 101.886V104ZM101.645 91.5844L96.1317 75.7073L90.9084 91.5844H101.645ZM91.8826 101.886V104H81.1044V101.886L83.6332 101.285C83.9372 101.216 84.1928 101.091 84.4001 100.912C84.6212 100.732 84.7801 100.49 84.8768 100.186L94.7637 71.5204H99.1994L109.501 100.186C109.611 100.49 109.77 100.732 109.978 100.912C110.185 101.077 110.44 101.202 110.744 101.285L113.128 101.886V104H100.858V101.886L104.962 101.14L102.516 94.1131H90.0794L87.7786 101.14L91.8826 101.886ZM129.003 101.886V104H115.385V101.886L118.66 101.264C119.005 101.195 119.275 101.064 119.468 100.87C119.675 100.663 119.779 100.373 119.779 99.9996V75.7073C119.779 75.348 119.682 75.0647 119.489 74.8575C119.295 74.6364 119.026 74.4913 118.68 74.4222L115.385 73.7796V71.624H128.775V73.7796L125.458 74.4222C125.113 74.4913 124.843 74.6364 124.65 74.8575C124.47 75.0785 124.38 75.3687 124.38 75.728V89.3458L137.314 74.5258L133.563 73.7796L133.542 71.624H144.817V73.7589L141.874 74.4222C141.584 74.4913 141.328 74.5811 141.107 74.6916C140.886 74.8022 140.672 74.968 140.465 75.1891L131.842 84.6822C132.533 85.4836 133.21 86.3956 133.873 87.4182C134.551 88.4269 135.338 89.6705 136.236 91.1491L141.439 99.7095C141.771 100.221 142.068 100.594 142.33 100.829C142.593 101.05 142.973 101.223 143.47 101.347L145.75 101.886V104H139.159C138.689 104 138.143 103.592 137.521 102.777C136.913 101.948 136.216 100.829 135.428 99.4193L131.842 92.9938C131.276 91.9575 130.751 91.0385 130.267 90.2371C129.783 89.4218 129.307 88.6756 128.837 87.9985L124.38 92.9316V100.02C124.38 100.393 124.477 100.684 124.671 100.891C124.864 101.084 125.147 101.209 125.52 101.264L129.003 101.886ZM171.248 79.5833H168.947L167.994 75.6658C167.911 75.348 167.773 75.0993 167.579 74.9196C167.386 74.7262 167.123 74.5673 166.792 74.4429C166.322 74.2633 165.707 74.1389 164.947 74.0698C164.201 73.9869 163.379 73.9455 162.48 73.9455H157.299V86.1331L167.393 85.7807V88.9727L157.299 88.7033V101.471H163.662C164.56 101.471 165.424 101.437 166.253 101.368C167.096 101.299 167.752 101.174 168.222 100.995C168.54 100.87 168.781 100.711 168.947 100.518C169.127 100.324 169.272 100.076 169.383 99.7716L170.937 95.2531L173.217 95.5847C173.203 96.9251 173.12 98.3069 172.968 99.7302C172.816 101.153 172.609 102.577 172.347 104H148.282V101.886L151.599 101.285C151.958 101.216 152.227 101.071 152.407 100.849C152.587 100.628 152.676 100.338 152.676 99.9789V75.728C152.676 75.3825 152.58 75.0993 152.386 74.8782C152.207 74.6433 151.944 74.4913 151.599 74.4222L148.282 73.7796V71.624H171.289C171.4 72.9091 171.448 74.208 171.435 75.5207C171.435 76.8335 171.372 78.1876 171.248 79.5833ZM216.082 112.623C214.604 112.623 213.325 112.291 212.248 111.628C211.17 110.978 210.168 110.211 209.242 109.327C208.33 108.443 207.418 107.544 206.506 106.632C205.594 105.734 204.565 105.036 203.418 104.539C201.207 104.525 199.258 104.138 197.573 103.378C195.901 102.618 194.505 101.54 193.386 100.145C192.28 98.7491 191.444 97.0495 190.878 95.0458C190.311 93.0422 190.028 90.8036 190.028 88.3302C190.028 85.5804 190.373 83.1345 191.064 80.9927C191.769 78.8371 192.75 77.0338 194.008 75.5829C195.279 74.132 196.813 73.0265 198.609 72.2665C200.405 71.4927 202.402 71.1058 204.599 71.1058C206.824 71.1058 208.779 71.4858 210.465 72.2458C212.165 72.992 213.567 74.0629 214.673 75.4585C215.792 76.8542 216.635 78.5538 217.201 80.5575C217.768 82.5611 218.051 84.7996 218.051 87.2731C218.051 91.6811 217.16 95.3153 215.377 98.1756C213.595 101.022 211.184 102.922 208.144 103.876C208.89 104.18 209.588 104.532 210.237 104.933C210.886 105.347 211.522 105.783 212.144 106.239C213.18 106.999 214.217 107.662 215.253 108.228C216.289 108.809 217.485 109.099 218.839 109.099C219.184 109.099 219.523 109.085 219.854 109.057C220.2 109.044 220.504 109.016 220.766 108.975L221.264 110.944C220.836 111.289 220.145 111.655 219.191 112.042C218.238 112.429 217.201 112.623 216.082 112.623ZM204.081 73.5516C201.234 73.5516 199.024 74.7193 197.448 77.0545C195.873 79.376 195.085 82.9756 195.085 87.8535C195.085 92.5516 195.825 96.096 197.303 98.4865C198.782 100.877 201 102.072 203.957 102.072C206.789 102.072 208.993 100.898 210.569 98.5487C212.158 96.1996 212.952 92.5793 212.952 87.6876C212.952 83.0033 212.213 79.4796 210.734 77.1167C209.27 74.74 207.052 73.5516 204.081 73.5516ZM242.044 71.624H253.464V73.7796L250.956 74.3807C250.611 74.4636 250.348 74.6225 250.169 74.8575C250.003 75.0785 249.92 75.3687 249.92 75.728V92.0611C249.92 96.4 248.849 99.5505 246.707 101.513C244.565 103.461 241.601 104.435 237.815 104.435C233.725 104.435 230.727 103.371 228.82 101.243C226.913 99.1015 225.959 95.8818 225.959 91.5844V75.7073C225.959 75.3618 225.869 75.0785 225.69 74.8575C225.524 74.6364 225.268 74.4775 224.923 74.3807L222.539 73.7796V71.624H235.432V73.7796L231.784 74.4429C231.438 74.4982 231.169 74.6433 230.975 74.8782C230.796 75.1131 230.706 75.4102 230.706 75.7695V92.0404C230.706 95.7436 231.417 98.3484 232.841 99.8545C234.278 101.361 236.205 102.114 238.624 102.114C241.484 102.114 243.543 101.264 244.8 99.5644C246.058 97.8647 246.687 95.4396 246.687 92.2891V75.728C246.687 75.3687 246.597 75.0785 246.417 74.8575C246.237 74.6225 245.975 74.4775 245.629 74.4222L242.044 73.7796V71.624ZM271.163 71.624V73.7796L267.868 74.4222C267.522 74.4913 267.253 74.6364 267.059 74.8575C266.88 75.0785 266.79 75.3687 266.79 75.728V99.9789C266.79 100.338 266.88 100.628 267.059 100.849C267.239 101.071 267.508 101.216 267.868 101.285L271.163 101.886V104H257.773V101.886L261.09 101.285C261.449 101.216 261.719 101.071 261.898 100.849C262.078 100.628 262.168 100.338 262.168 99.9789V75.728C262.168 75.3825 262.071 75.0993 261.877 74.8782C261.698 74.6433 261.435 74.4913 261.09 74.4222L257.773 73.7796V71.624H271.163ZM298.58 104H275.946L274.827 102.114L293.481 74.0076H286.703C285.75 74.0076 284.873 74.0422 284.071 74.1113C283.27 74.1665 282.627 74.284 282.143 74.4636C281.839 74.5742 281.591 74.7331 281.397 74.9404C281.204 75.1338 281.059 75.3825 280.962 75.6865L279.511 80.8684H276.962C276.906 79.3898 276.927 77.8422 277.024 76.2255C277.121 74.6087 277.273 73.068 277.48 71.6033H298.29L299.243 73.448L280.775 101.471H289.357C290.31 101.471 291.187 101.437 291.989 101.368C292.79 101.285 293.433 101.153 293.917 100.974C294.221 100.863 294.469 100.711 294.663 100.518C294.856 100.324 295.001 100.069 295.098 99.7509L296.798 94.2375L299.285 94.5276C299.299 95.2185 299.292 95.9716 299.264 96.7869C299.237 97.6022 299.188 98.4313 299.119 99.2742C299.064 100.103 298.988 100.925 298.891 101.741C298.808 102.556 298.705 103.309 298.58 104Z" fill="white"/>
</svg>
